<svg width="12" height="14" viewBox="0 0 12 14" fill="none" xmlns="http://www.w3.org/2000/svg">
<path d="M9.83438 7.39688C9.82813 6.25 10.3469 5.38437 11.3969 4.74687C10.8094 3.90625 9.92188 3.44375 8.75 3.35313C7.64062 3.26563 6.42812 4 5.98438 4C5.51562 4 4.44062 3.38438 3.59687 3.38438C1.85312 3.4125 0 4.775 0 7.54688C0 8.36563 0.15 9.21146 0.45 10.0844C0.85 11.2313 2.29375 14.0437 3.8 13.9969C4.5875 13.9781 5.14375 13.4375 6.16875 13.4375C7.1625 13.4375 7.67812 13.9969 8.55625 13.9969C10.075 13.975 11.3812 11.4188 11.7625 10.2688C9.725 9.30938 9.83438 7.45625 9.83438 7.39688ZM8.06563 2.26562C8.91875 1.25312 8.84063 0.33125 8.81563 0C8.0625 0.04375 7.19062 0.5125 6.69375 1.09063C6.14687 1.70938 5.825 2.475 5.89375 3.3375C6.70938 3.4 7.45313 2.98125 8.06563 2.26562Z" fill="#A9AFB6"/>
</svg>
