<svg width="23" height="18" viewBox="0 0 23 18" fill="none" xmlns="http://www.w3.org/2000/svg">
<g clip-path="url(#clip0_465_1598)">
<path d="M3.375 2.25C3.375 1.62773 3.87773 1.125 4.5 1.125H5.625C6.24727 1.125 6.75 1.62773 6.75 2.25V7.875V10.125V15.75C6.75 16.3723 6.24727 16.875 5.625 16.875H4.5C3.87773 16.875 3.375 16.3723 3.375 15.75V13.5H2.25C1.62773 13.5 1.125 12.9973 1.125 12.375V10.125C0.502734 10.125 0 9.62227 0 9C0 8.37773 0.502734 7.875 1.125 7.875V5.625C1.125 5.00273 1.62773 4.5 2.25 4.5H3.375V2.25ZM19.125 2.25V4.5H20.25C20.8723 4.5 21.375 5.00273 21.375 5.625V7.875C21.9973 7.875 22.5 8.37773 22.5 9C22.5 9.62227 21.9973 10.125 21.375 10.125V12.375C21.375 12.9973 20.8723 13.5 20.25 13.5H19.125V15.75C19.125 16.3723 18.6223 16.875 18 16.875H16.875C16.2527 16.875 15.75 16.3723 15.75 15.75V10.125V7.875V2.25C15.75 1.62773 16.2527 1.125 16.875 1.125H18C18.6223 1.125 19.125 1.62773 19.125 2.25ZM14.625 7.875V10.125H7.875V7.875H14.625Z" fill="white"/>
</g>
<defs>
<clipPath id="clip0_465_1598">
<path d="M0 0H22.5V18H0V0Z" fill="white"/>
</clipPath>
</defs>
</svg>
